# xmcd CD database file
#
# Track frame offsets:
#	150
#	31797
#	65130
#	93917
#	119460
#	141300
#
# Disc length: 2410 seconds
#
# Revision: 0
# Processed by: cddbd v1.5.2PL0 Copyright (c) Steve Scherf et al.
# Submitted via: CDex 1.70beta2
#
DISCID=51096806
DTITLE=Jim Doherty - Spondance
DYEAR=1986
DGENRE=Jazz
TTITLE0=Nordic Maiden
TTITLE1=When Two People Meet
TTITLE2=Bertha D. Blooze
TTITLE3=El Sponzo
TTITLE4=Sergeant Bones
TTITLE5=Maybe It's You
EXTD=YEAR: 1986
EXTT0=
EXTT1=
EXTT2=
EXTT3=
EXTT4=
EXTT5=
PLAYORDER=
